<svg width="156" height="19" viewBox="0 0 156 19" fill="none" xmlns="http://www.w3.org/2000/svg">
<path d="M156 0.769531L146.91 18.2306H141.202L132.112 0.769531H137.819L144.056 12.7429L150.292 0.769531H156Z" fill="#111111"/>
<path d="M131.794 11.7451V18.2306H116.563C113.469 18.2306 110.952 14.3144 110.952 9.50009C110.952 4.68581 113.469 0.769531 116.563 0.769531H131.794V7.25509H117.605C116.723 7.25509 116.002 8.12814 116.002 9.50009C116.002 10.872 116.723 11.7451 117.605 11.7451H131.794Z" fill="#111111"/>
<path d="M89.1492 18.2306V14.7384C89.1492 9.72459 90.7364 7.25509 93.9589 7.25509H104.701C105.149 7.25509 105.406 6.88092 105.406 6.25731C105.406 5.6337 105.149 5.25953 104.701 5.25953H89.7905V0.769531H106.464C108.821 0.769531 110.472 3.01453 110.472 6.25731C110.472 9.50009 108.821 11.7451 106.464 11.7451H95.1773C94.536 11.7451 94.2154 12.244 94.2154 13.2418V13.7406H109.831V18.2306H89.1492Z" fill="#8957E5"/>
<path d="M67.3475 18.2306V0.769531H88.1896V5.25953H72.4137V7.25509H88.1896V11.7451H72.4137V13.7406H88.1896V18.2306H67.3475Z" fill="#111111"/>
<path d="M61.0806 18.2306H44.8879V0.769531H61.0806C64.1748 0.769531 66.6919 4.68581 66.6919 9.50009C66.6919 14.3144 64.1748 18.2306 61.0806 18.2306ZM49.9381 7.00564V11.9945H59.9583C60.9523 11.9945 61.6417 10.9469 61.6417 9.50009C61.6417 8.05331 60.9523 7.00564 59.9583 7.00564H49.9381Z" fill="#111111"/>
<path d="M26.9278 0.519531H38.6314C41.7257 0.519531 44.2427 4.68525 44.2427 9.49953C44.2427 14.3138 41.7257 18.4795 38.6314 18.4795H26.9278C23.8336 18.4795 21.3165 14.3138 21.3165 9.49953C21.3165 4.68525 23.8336 0.519531 26.9278 0.519531ZM37.5893 7.00509H27.9699C27.0882 7.00509 26.3667 8.12759 26.3667 9.49953C26.3667 10.8715 27.0882 11.994 27.9699 11.994H37.5893C38.4711 11.994 39.1926 10.8715 39.1926 9.49953C39.1926 8.12759 38.4711 7.00509 37.5893 7.00509Z" fill="#111111"/>
<path d="M20.842 11.7451V18.2306H5.61131C2.51708 18.2306 0 14.3144 0 9.50009C0 4.68581 2.51708 0.769531 5.61131 0.769531H20.842V7.25509H6.65341C5.77164 7.25509 5.05018 8.12814 5.05018 9.50009C5.05018 10.872 5.77164 11.7451 6.65341 11.7451H20.842Z" fill="#111111"/>
</svg>
